<mxfile host="app.diagrams.net" modified="2024-06-09T09:38:52.284Z" agent="Mozilla/5.0 (Windows NT 10.0; Win64; x64) AppleWebKit/537.36 (KHTML, like Gecko) Chrome/125.0.0.0 Safari/537.36" etag="AV3F80rnttKU0sCYE_OU" version="24.5.2" type="device">
  <diagram name="Page-1" id="OCAm6xF4lnvcV3fOPs_U">
    <mxGraphModel dx="2206" dy="1188" grid="1" gridSize="10" guides="1" tooltips="1" connect="1" arrows="1" fold="1" page="1" pageScale="1" pageWidth="827" pageHeight="1169" math="0" shadow="0">
      <root>
        <mxCell id="0" />
        <mxCell id="1" parent="0" />
        <mxCell id="lFJ4DN13Ct-qVnB9yUqz-1" value="&lt;div&gt;&lt;span style=&quot;font-size: 20px; background-color: initial;&quot;&gt;Processus Mobile&lt;/span&gt;&lt;/div&gt;&lt;div&gt;&lt;span style=&quot;font-size: 20px; background-color: initial;&quot;&gt;Pn&lt;/span&gt;&lt;br&gt;&lt;/div&gt;" style="text;html=1;align=center;verticalAlign=middle;whiteSpace=wrap;rounded=0;" vertex="1" parent="1">
          <mxGeometry x="310" y="40" width="180" height="30" as="geometry" />
        </mxCell>
        <mxCell id="lFJ4DN13Ct-qVnB9yUqz-3" value="&lt;div&gt;&lt;font style=&quot;font-size: 20px;&quot;&gt;Processus Fixe&lt;/font&gt;&lt;/div&gt;&lt;div&gt;&lt;font style=&quot;font-size: 20px;&quot;&gt;P&amp;gt;&lt;/font&gt;&lt;/div&gt;" style="text;html=1;align=center;verticalAlign=middle;whiteSpace=wrap;rounded=0;" vertex="1" parent="1">
          <mxGeometry x="640" y="40" width="160" height="30" as="geometry" />
        </mxCell>
        <mxCell id="lFJ4DN13Ct-qVnB9yUqz-5" value="" style="endArrow=none;html=1;rounded=0;" edge="1" parent="1">
          <mxGeometry width="50" height="50" relative="1" as="geometry">
            <mxPoint x="400" y="820" as="sourcePoint" />
            <mxPoint x="399.5" y="90" as="targetPoint" />
          </mxGeometry>
        </mxCell>
        <mxCell id="lFJ4DN13Ct-qVnB9yUqz-6" value="" style="endArrow=none;html=1;rounded=0;" edge="1" parent="1" source="lFJ4DN13Ct-qVnB9yUqz-12">
          <mxGeometry width="50" height="50" relative="1" as="geometry">
            <mxPoint x="719.5" y="680" as="sourcePoint" />
            <mxPoint x="719.5" y="90" as="targetPoint" />
          </mxGeometry>
        </mxCell>
        <mxCell id="lFJ4DN13Ct-qVnB9yUqz-7" value="&lt;div&gt;&lt;span style=&quot;font-size: 20px;&quot;&gt;Processus 1&lt;/span&gt;&lt;/div&gt;" style="text;html=1;align=center;verticalAlign=middle;whiteSpace=wrap;rounded=0;" vertex="1" parent="1">
          <mxGeometry x="30" y="40" width="180" height="30" as="geometry" />
        </mxCell>
        <mxCell id="lFJ4DN13Ct-qVnB9yUqz-8" value="" style="endArrow=none;html=1;rounded=0;" edge="1" parent="1" source="lFJ4DN13Ct-qVnB9yUqz-17">
          <mxGeometry width="50" height="50" relative="1" as="geometry">
            <mxPoint x="119.5" y="680" as="sourcePoint" />
            <mxPoint x="119.5" y="90" as="targetPoint" />
          </mxGeometry>
        </mxCell>
        <mxCell id="lFJ4DN13Ct-qVnB9yUqz-9" value="" style="endArrow=classic;html=1;rounded=0;entryX=0;entryY=0;entryDx=0;entryDy=0;exitX=1;exitY=0;exitDx=0;exitDy=0;" edge="1" parent="1" source="lFJ4DN13Ct-qVnB9yUqz-17" target="lFJ4DN13Ct-qVnB9yUqz-13">
          <mxGeometry width="50" height="50" relative="1" as="geometry">
            <mxPoint x="120" y="120" as="sourcePoint" />
            <mxPoint x="370" y="130" as="targetPoint" />
          </mxGeometry>
        </mxCell>
        <mxCell id="lFJ4DN13Ct-qVnB9yUqz-10" value="Script pour inscrire toutes les machines connectée à l&#39;annuaire" style="text;html=1;align=center;verticalAlign=middle;whiteSpace=wrap;rounded=0;" vertex="1" parent="1">
          <mxGeometry x="150" y="80" width="220" height="40" as="geometry" />
        </mxCell>
        <mxCell id="lFJ4DN13Ct-qVnB9yUqz-13" value="" style="rounded=0;whiteSpace=wrap;html=1;" vertex="1" parent="1">
          <mxGeometry x="390" y="120" width="20" height="60" as="geometry" />
        </mxCell>
        <mxCell id="lFJ4DN13Ct-qVnB9yUqz-14" value="" style="endArrow=none;html=1;rounded=0;" edge="1" parent="1" source="lFJ4DN13Ct-qVnB9yUqz-25" target="lFJ4DN13Ct-qVnB9yUqz-12">
          <mxGeometry width="50" height="50" relative="1" as="geometry">
            <mxPoint x="719.5" y="680" as="sourcePoint" />
            <mxPoint x="719.5" y="90" as="targetPoint" />
          </mxGeometry>
        </mxCell>
        <mxCell id="lFJ4DN13Ct-qVnB9yUqz-12" value="" style="rounded=0;whiteSpace=wrap;html=1;" vertex="1" parent="1">
          <mxGeometry x="710" y="180" width="20" height="60" as="geometry" />
        </mxCell>
        <mxCell id="lFJ4DN13Ct-qVnB9yUqz-15" value="" style="endArrow=classic;html=1;rounded=0;entryX=0;entryY=0;entryDx=0;entryDy=0;" edge="1" parent="1" target="lFJ4DN13Ct-qVnB9yUqz-12">
          <mxGeometry width="50" height="50" relative="1" as="geometry">
            <mxPoint x="410" y="179" as="sourcePoint" />
            <mxPoint x="680" y="179" as="targetPoint" />
          </mxGeometry>
        </mxCell>
        <mxCell id="lFJ4DN13Ct-qVnB9yUqz-16" value="S&#39;enregistre" style="text;html=1;align=center;verticalAlign=middle;whiteSpace=wrap;rounded=0;" vertex="1" parent="1">
          <mxGeometry x="450" y="150" width="220" height="30" as="geometry" />
        </mxCell>
        <mxCell id="lFJ4DN13Ct-qVnB9yUqz-18" value="" style="endArrow=none;html=1;rounded=0;" edge="1" parent="1" source="lFJ4DN13Ct-qVnB9yUqz-20" target="lFJ4DN13Ct-qVnB9yUqz-17">
          <mxGeometry width="50" height="50" relative="1" as="geometry">
            <mxPoint x="119.5" y="680" as="sourcePoint" />
            <mxPoint x="119.5" y="90" as="targetPoint" />
          </mxGeometry>
        </mxCell>
        <mxCell id="lFJ4DN13Ct-qVnB9yUqz-17" value="" style="rounded=0;whiteSpace=wrap;html=1;" vertex="1" parent="1">
          <mxGeometry x="110" y="120" width="20" height="120" as="geometry" />
        </mxCell>
        <mxCell id="lFJ4DN13Ct-qVnB9yUqz-21" value="" style="endArrow=none;html=1;rounded=0;" edge="1" parent="1" target="lFJ4DN13Ct-qVnB9yUqz-20">
          <mxGeometry width="50" height="50" relative="1" as="geometry">
            <mxPoint x="120" y="830" as="sourcePoint" />
            <mxPoint x="120" y="180" as="targetPoint" />
          </mxGeometry>
        </mxCell>
        <mxCell id="lFJ4DN13Ct-qVnB9yUqz-20" value="" style="rounded=0;whiteSpace=wrap;html=1;" vertex="1" parent="1">
          <mxGeometry x="110" y="290" width="20" height="490" as="geometry" />
        </mxCell>
        <mxCell id="lFJ4DN13Ct-qVnB9yUqz-22" value="" style="endArrow=classic;html=1;rounded=0;exitX=1;exitY=0;exitDx=0;exitDy=0;entryX=0;entryY=0;entryDx=0;entryDy=0;" edge="1" parent="1" source="lFJ4DN13Ct-qVnB9yUqz-20" target="lFJ4DN13Ct-qVnB9yUqz-25">
          <mxGeometry width="50" height="50" relative="1" as="geometry">
            <mxPoint x="140" y="300" as="sourcePoint" />
            <mxPoint x="700" y="290" as="targetPoint" />
          </mxGeometry>
        </mxCell>
        <mxCell id="lFJ4DN13Ct-qVnB9yUqz-23" value="" style="endArrow=classic;html=1;rounded=0;entryX=1;entryY=1;entryDx=0;entryDy=0;exitX=0;exitY=1;exitDx=0;exitDy=0;dashed=1;" edge="1" parent="1" source="lFJ4DN13Ct-qVnB9yUqz-12" target="lFJ4DN13Ct-qVnB9yUqz-17">
          <mxGeometry width="50" height="50" relative="1" as="geometry">
            <mxPoint x="420" y="189" as="sourcePoint" />
            <mxPoint x="720" y="190" as="targetPoint" />
          </mxGeometry>
        </mxCell>
        <mxCell id="lFJ4DN13Ct-qVnB9yUqz-24" value="void" style="text;html=1;align=center;verticalAlign=middle;whiteSpace=wrap;rounded=0;" vertex="1" parent="1">
          <mxGeometry x="530" y="210" width="60" height="30" as="geometry" />
        </mxCell>
        <mxCell id="lFJ4DN13Ct-qVnB9yUqz-26" value="" style="endArrow=none;html=1;rounded=0;" edge="1" parent="1" target="lFJ4DN13Ct-qVnB9yUqz-25">
          <mxGeometry width="50" height="50" relative="1" as="geometry">
            <mxPoint x="720" y="820" as="sourcePoint" />
            <mxPoint x="720" y="250" as="targetPoint" />
          </mxGeometry>
        </mxCell>
        <mxCell id="lFJ4DN13Ct-qVnB9yUqz-25" value="" style="rounded=0;whiteSpace=wrap;html=1;" vertex="1" parent="1">
          <mxGeometry x="710" y="290" width="20" height="80" as="geometry" />
        </mxCell>
        <mxCell id="lFJ4DN13Ct-qVnB9yUqz-27" value="" style="endArrow=classic;html=1;rounded=0;entryX=1;entryY=1;entryDx=0;entryDy=0;exitX=0;exitY=1;exitDx=0;exitDy=0;dashed=1;" edge="1" parent="1">
          <mxGeometry width="50" height="50" relative="1" as="geometry">
            <mxPoint x="710" y="370" as="sourcePoint" />
            <mxPoint x="130" y="370" as="targetPoint" />
          </mxGeometry>
        </mxCell>
        <mxCell id="lFJ4DN13Ct-qVnB9yUqz-28" value="Annuaire de processus pouvant calculer" style="text;html=1;align=center;verticalAlign=middle;whiteSpace=wrap;rounded=0;" vertex="1" parent="1">
          <mxGeometry x="490" y="330" width="140" height="40" as="geometry" />
        </mxCell>
        <mxCell id="lFJ4DN13Ct-qVnB9yUqz-29" value="Demande l&#39;annuaire" style="text;html=1;align=center;verticalAlign=middle;whiteSpace=wrap;rounded=0;" vertex="1" parent="1">
          <mxGeometry x="150" y="260" width="220" height="30" as="geometry" />
        </mxCell>
        <mxCell id="lFJ4DN13Ct-qVnB9yUqz-30" value="" style="rounded=1;whiteSpace=wrap;html=1;gradientColor=none;fillColor=none;" vertex="1" parent="1">
          <mxGeometry x="30" y="490" width="500" height="250" as="geometry" />
        </mxCell>
        <mxCell id="lFJ4DN13Ct-qVnB9yUqz-31" value="Pour chaque processus dans la liste" style="text;html=1;align=center;verticalAlign=middle;whiteSpace=wrap;rounded=0;" vertex="1" parent="1">
          <mxGeometry x="414" y="500" width="116" height="30" as="geometry" />
        </mxCell>
        <mxCell id="lFJ4DN13Ct-qVnB9yUqz-32" value="" style="rounded=0;whiteSpace=wrap;html=1;" vertex="1" parent="1">
          <mxGeometry x="390" y="540" width="20" height="50" as="geometry" />
        </mxCell>
        <mxCell id="lFJ4DN13Ct-qVnB9yUqz-33" value="" style="endArrow=classic;html=1;rounded=0;exitX=1;exitY=0;exitDx=0;exitDy=0;entryX=0;entryY=0;entryDx=0;entryDy=0;" edge="1" parent="1" target="lFJ4DN13Ct-qVnB9yUqz-32">
          <mxGeometry width="50" height="50" relative="1" as="geometry">
            <mxPoint x="130" y="540" as="sourcePoint" />
            <mxPoint x="710" y="540" as="targetPoint" />
          </mxGeometry>
        </mxCell>
        <mxCell id="lFJ4DN13Ct-qVnB9yUqz-35" value="Demande calcul" style="text;html=1;align=center;verticalAlign=middle;whiteSpace=wrap;rounded=0;" vertex="1" parent="1">
          <mxGeometry x="140" y="510" width="220" height="30" as="geometry" />
        </mxCell>
        <mxCell id="lFJ4DN13Ct-qVnB9yUqz-40" value="" style="endArrow=classic;html=1;rounded=0;exitX=1;exitY=0.25;exitDx=0;exitDy=0;entryX=1.15;entryY=0.351;entryDx=0;entryDy=0;entryPerimeter=0;" edge="1" parent="1" source="lFJ4DN13Ct-qVnB9yUqz-20" target="lFJ4DN13Ct-qVnB9yUqz-20">
          <mxGeometry width="50" height="50" relative="1" as="geometry">
            <mxPoint x="190" y="430" as="sourcePoint" />
            <mxPoint x="240" y="480" as="targetPoint" />
            <Array as="points">
              <mxPoint x="220" y="410" />
              <mxPoint x="220" y="460" />
            </Array>
          </mxGeometry>
        </mxCell>
        <mxCell id="lFJ4DN13Ct-qVnB9yUqz-41" value="Découpe l&#39;image en x parties" style="text;html=1;align=center;verticalAlign=middle;whiteSpace=wrap;rounded=0;" vertex="1" parent="1">
          <mxGeometry x="220" y="420" width="170" height="30" as="geometry" />
        </mxCell>
        <mxCell id="lFJ4DN13Ct-qVnB9yUqz-42" value="" style="endArrow=classic;html=1;rounded=0;entryX=0.2;entryY=0.4;entryDx=0;entryDy=0;exitX=0;exitY=1;exitDx=0;exitDy=0;dashed=1;entryPerimeter=0;" edge="1" parent="1" source="lFJ4DN13Ct-qVnB9yUqz-32" target="lFJ4DN13Ct-qVnB9yUqz-30">
          <mxGeometry width="50" height="50" relative="1" as="geometry">
            <mxPoint x="720" y="380" as="sourcePoint" />
            <mxPoint x="140" y="380" as="targetPoint" />
          </mxGeometry>
        </mxCell>
        <mxCell id="lFJ4DN13Ct-qVnB9yUqz-43" value="Image" style="text;html=1;align=center;verticalAlign=middle;whiteSpace=wrap;rounded=0;" vertex="1" parent="1">
          <mxGeometry x="180" y="560" width="140" height="30" as="geometry" />
        </mxCell>
        <mxCell id="lFJ4DN13Ct-qVnB9yUqz-44" value="" style="endArrow=classic;html=1;rounded=0;exitX=1;exitY=0.25;exitDx=0;exitDy=0;entryX=1.15;entryY=0.351;entryDx=0;entryDy=0;entryPerimeter=0;" edge="1" parent="1">
          <mxGeometry width="50" height="50" relative="1" as="geometry">
            <mxPoint x="130" y="622" as="sourcePoint" />
            <mxPoint x="133" y="672" as="targetPoint" />
            <Array as="points">
              <mxPoint x="220" y="620" />
              <mxPoint x="220" y="670" />
            </Array>
          </mxGeometry>
        </mxCell>
        <mxCell id="lFJ4DN13Ct-qVnB9yUqz-45" value="Affiche partie de l&#39;image" style="text;html=1;align=center;verticalAlign=middle;whiteSpace=wrap;rounded=0;" vertex="1" parent="1">
          <mxGeometry x="220" y="630" width="170" height="30" as="geometry" />
        </mxCell>
      </root>
    </mxGraphModel>
  </diagram>
</mxfile>
